<?xml version="1.0" encoding="UTF-8" standalone="no"?>
<svg
   width="752pt"
   height="752pt"
   version="1.1"
	 fill="#ff0000"	 
   viewBox="0 0 752 752"
   id="svg12"
   sodipodi:docname="airlines.svg"
   inkscape:version="1.2 (dc2aedaf03, 2022-05-15)"
   xmlns:inkscape="http://www.inkscape.org/namespaces/inkscape"
   xmlns:sodipodi="http://sodipodi.sourceforge.net/DTD/sodipodi-0.dtd"
   xmlns="http://www.w3.org/2000/svg"
   xmlns:svg="http://www.w3.org/2000/svg">
  <defs
     id="defs16" />
  <sodipodi:namedview
     id="namedview14"
     pagecolor="#ffffff"
     bordercolor="#000000"
     borderopacity="0.25"
     inkscape:showpageshadow="2"
     inkscape:pageopacity="0.0"
     inkscape:pagecheckerboard="0"
     inkscape:deskcolor="#d1d1d1"
     inkscape:document-units="pt"
     showgrid="false"
     inkscape:zoom="0.65525266"
     inkscape:cx="501.33333"
     inkscape:cy="502.0964"
     inkscape:window-width="1600"
     inkscape:window-height="837"
     inkscape:window-x="-8"
     inkscape:window-y="174"
     inkscape:window-maximized="1"
     inkscape:current-layer="svg12" />
  <path
     d="M 708.52075,349.71127 747.25442,89.116954 c 0.5441,-3.691502 -1.24222,-7.362475 -4.93803,-10.106812 -3.6957,-2.723807 -8.94176,-4.293037 -14.43432,-4.293037 H 66.666037 c -9.999311,0 -18.356044,5.10871 -19.372351,11.786827 L 8.3944531,348.40785 c -0.1128649,0.86413 -0.1128649,1.75593 0,2.62011 L 47.293686,612.93188 c 1.016362,6.67794 9.37304,11.78683 19.372351,11.78683 H 727.88207 c 5.48205,0 10.73834,-1.56927 14.43432,-4.29304 3.6957,-2.75142 5.48205,-6.41531 4.93803,-10.10681 L 708.52075,349.72453 Z M 49.249562,362.80452 H 671.41128 l 35.00695,235.72946 H 84.256509 c 0,0 -27.380054,-184.40699 -35.006947,-235.72946 z M 173.6346,559.24573 h 427.83639 c 10.73835,0 19.44409,-5.86916 19.44409,-13.09324 0,-7.23099 -8.71599,-13.09326 -19.44409,-13.09326 H 173.6346 c -10.73836,0 -19.44409,5.86918 -19.44409,13.09326 0,7.23098 8.71598,13.09324 19.44409,13.09324 z m -9.72205,-65.48041 h 427.83639 c 10.73835,0 19.4441,-5.86916 19.4441,-13.09324 0,-7.23099 -8.71601,-13.09326 -19.4441,-13.09326 H 163.91255 c -10.73835,0 -19.4441,5.86918 -19.4441,13.09326 0,7.23098 8.716,13.09324 19.4441,13.09324 z m -9.72204,-65.48039 h 427.83638 c 10.73835,0 19.4441,-5.86917 19.4441,-13.09325 0,-7.23099 -8.716,-13.09326 -19.4441,-13.09326 H 154.19051 c -10.73837,0 -19.4441,5.86918 -19.4441,13.09326 0,7.23097 8.71598,13.09325 19.4441,13.09325 z M 671.41024,336.61766 H 49.248504 L 84.25545,100.88821 H 706.41718 Z M 363.86423,168.65157 c -32.79142,-0.62909 -74.79975,-2.01855 -122.79501,1.09918 -57.29627,3.69151 -88.13497,31.32264 -95.79339,53.22317 -3.96273,11.42032 4.67099,21.94833 30.53119,26.79566 29.48521,5.55114 91.09164,4.47956 149.54695,4.32063 8.82899,-0.0276 17.54499,-0.0554 26.05573,-0.10369 l 99.09962,53.56297 c 4.86628,2.6201 11.31338,3.53258 17.30873,2.41269 l 33.22242,-6.15268 c 6.14934,-1.12683 11.08764,-4.21694 13.18175,-8.27496 2.13537,-4.05801 1.17034,-8.53758 -2.56655,-12.02184 l -33.52993,-31.16336 c 22.59605,-0.49775 41.1174,-1.02313 54.33962,-1.52089 25.39869,-0.94017 46.05305,-10.86727 61.45401,-26.34613 19.17733,-19.30079 30.02923,-47.69273 33.87947,-72.13109 0.58518,-3.6915 -1.17035,-7.36247 -4.86628,-10.10681 -3.65471,-2.77903 -8.91101,-4.34826 -14.39333,-4.34826 l -47.10169,-0.10368 c -8.56198,-0.0276 -16.10766,3.71928 -18.63304,9.19432 0,0 -7.23767,15.34702 -30.88075,20.03348 -4.67102,0.91943 -13.02774,1.52085 -23.61235,1.88725 l 24.74165,-21.61031 c 4.50676,-3.9267 5.28706,-9.27044 2.06352,-13.75 -3.26468,-4.47956 -9.99931,-7.30708 -17.42174,-7.33469 l -35.04898,-0.076 c -3.93197,0 -7.78169,0.78809 -11.00538,2.28136 l -87.78543,40.25453 z m 93.46224,109.00541 -79.73803,-43.1091 33.48787,0.076 z m -6.76537,-50.98977 c 34.33939,-0.60142 61.92444,-1.33422 79.77746,-1.99095 13.305,-0.49774 23.18105,-6.67795 31.26971,-14.77326 12.32969,-12.41579 20.1114,-29.41487 24.50538,-45.88938 0,0 -12.37069,-0.0276 -12.37069,-0.0554 -7.62768,9.19433 -23.06805,22.681 -50.87835,28.15657 -19.5981,3.87822 -100.38214,3.45648 -147.5653,2.93105 -33.13834,-0.39405 -78.13487,-2.6201 -130.53491,0.76044 -32.24739,2.09466 -51.92697,15.58204 -59.34886,28.33708 3.41869,0.68439 8.13096,1.52089 12.41197,1.93575 26.37346,2.59232 66.66825,2.14988 107.46762,1.91487 -2.84363,-3.27687 -3.54194,-7.30709 -1.56046,-11.02638 2.72066,-5.24002 10.11234,-8.745 18.39706,-8.7243 l 98.98661,0.20741 c 6.18034,0.0276 12.02167,2.01856 15.67637,5.41983 l 13.76703,12.78231 z M 431.312,169.41256 c 2.45361,0.0276 4.86628,0.0276 7.2684,0.0276 l 8.08971,-7.07206 -15.36863,7.04445 z"
     fill-rule="evenodd"
     id="path10"
     style="stroke-width:2.15665" />
</svg>
