<?xml version="1.0" encoding="UTF-8" standalone="no"?>
<svg
   width="752pt"
   height="752pt"
   version="1.1"
	 fill="#ff0000"		 
   viewBox="0 0 752 752"
   id="svg144"
   sodipodi:docname="arriwals.svg"
   inkscape:version="1.2 (dc2aedaf03, 2022-05-15)"
   xmlns:inkscape="http://www.inkscape.org/namespaces/inkscape"
   xmlns:sodipodi="http://sodipodi.sourceforge.net/DTD/sodipodi-0.dtd"
   xmlns="http://www.w3.org/2000/svg"
   xmlns:svg="http://www.w3.org/2000/svg">
  <defs
     id="defs148" />
  <sodipodi:namedview
     id="namedview146"
     pagecolor="#ffffff"
     bordercolor="#000000"
     borderopacity="0.25"
     inkscape:showpageshadow="2"
     inkscape:pageopacity="0.0"
     inkscape:pagecheckerboard="0"
     inkscape:deskcolor="#d1d1d1"
     inkscape:document-units="pt"
     showgrid="false"
     inkscape:zoom="0.65525266"
     inkscape:cx="504.38559"
     inkscape:cy="502.0964"
     inkscape:window-width="1600"
     inkscape:window-height="837"
     inkscape:window-x="-8"
     inkscape:window-y="174"
     inkscape:window-maximized="1"
     inkscape:current-layer="svg144" />
  <g
     id="g142"
     transform="matrix(2.2830801,0,0,1.9612485,-480.71731,-416.69453)">
    <path
       d="m 354.88,282.23 24.957,9.0938 19.844,116.5 63.695,23.156 c 8.7617,3.2188 21.074,15.816 17.902,24.578 -2.2266,6.0625 -11.414,8.7617 -19.75,8.7617 l 0.004,0.004 c -3.3125,0.0469 -6.6055,-0.44922 -9.7578,-1.4688 l -63.695,-23.207 c 0,0.004 -90.738,-35.23 -108.21,-45.273 l -25.004,-16.906 c -2.2266,-2.2266 -3.3633,-4.1211 -2.8398,-5.4453 0.51953,-1.3242 2.5117,-2.0352 5.6836,-2.3203 l 3.0312,-47.359 18.09,6.582 8.9023,43.664 c 15.406,2.8711 30.645,6.5703 45.652,11.082 l 18.281,6.5352 3.2188,-108.02 m 0,-14.207 c -7.6836,-0.004 -13.977,6.1016 -14.207,13.781 l -2.5586,88.418 c -5.3984,-1.8945 -21.926,-6.1094 -38.266,-9.4727 l -7.0078,-34.383 v 0.004 c -0.98438,-4.8398 -4.4062,-8.8203 -9.043,-10.516 l -18.188,-6.582 c -4.1875,-1.4922 -8.832,-0.9375 -12.555,1.4961 -3.7188,2.4375 -6.082,6.4766 -6.3867,10.91 l -2.4609,37.887 h -0.004 c -2.5742,1.9453 -4.5039,4.6172 -5.5391,7.6719 -1.7539,4.7344 -2.082,12.125 6.1562,20.363 v 0.004 c 0.65234,0.61719 1.3477,1.1875 2.082,1.7031 l 24.91,16.859 c 0.29688,0.23438 0.61719,0.4375 0.94922,0.61719 17.855,10.133 100.87,42.621 110.25,46.176 h 0.28516 l 63.742,23.297 c 4.7109,1.5977 9.6602,2.3828 14.633,2.3203 16.34,0 28.984,-6.9609 33.152,-18.137 3.2188,-8.8086 0.80469,-18.941 -6.7734,-28.18 -5.168,-6.4727 -11.922,-11.496 -19.605,-14.586 l -55.977,-20.363 -18.613,-108.36 c -0.86328,-5.0234 -4.3516,-9.1953 -9.1406,-10.941 l -24.957,-9.0938 v 0.004 c -1.5195,-0.54688 -3.1211,-0.83594 -4.7344,-0.85547 z"
       id="path138" />
    <path
       d="M 529.91,525.18 H 222.08 c -3.9219,0 -7.1016,-3.1797 -7.1016,-7.1055 0,-3.9219 3.1797,-7.1016 7.1016,-7.1016 h 307.83 c 3.9258,0 7.1055,3.1797 7.1055,7.1016 0,3.9258 -3.1797,7.1055 -7.1055,7.1055 z"
       id="path140" />
  </g>
</svg>
