<?xml version="1.0" encoding="UTF-8" standalone="no"?>
<svg
   width="752pt"
   height="752pt"
   version="1.1"
   fill="#ff0000"		 
   viewBox="0 0 752 752"
   id="svg166"
   sodipodi:docname="car rental.svg"
   inkscape:version="1.2 (dc2aedaf03, 2022-05-15)"
   xmlns:inkscape="http://www.inkscape.org/namespaces/inkscape"
   xmlns:sodipodi="http://sodipodi.sourceforge.net/DTD/sodipodi-0.dtd"
   xmlns="http://www.w3.org/2000/svg"
   xmlns:svg="http://www.w3.org/2000/svg">
  <defs
     id="defs170" />
  <sodipodi:namedview
     id="namedview168"
     pagecolor="#ffffff"
     bordercolor="#000000"
     borderopacity="0.25"
     inkscape:showpageshadow="2"
     inkscape:pageopacity="0.0"
     inkscape:pagecheckerboard="0"
     inkscape:deskcolor="#d1d1d1"
     inkscape:document-units="pt"
     showgrid="false"
     inkscape:zoom="0.65525266"
     inkscape:cx="504.38559"
     inkscape:cy="503.62253"
     inkscape:window-width="1600"
     inkscape:window-height="837"
     inkscape:window-x="-8"
     inkscape:window-y="174"
     inkscape:window-maximized="1"
     inkscape:current-layer="svg166" />
  <path
     d="m 196.74125,348.84294 c -14.0394,0 -27.50418,5.57499 -37.43862,15.50943 -9.92718,9.92718 -15.50218,23.39217 -15.50218,37.43118 0,14.04665 5.575,27.51164 15.50218,37.43862 9.93444,9.92718 23.39961,15.50944 37.43862,15.50944 14.03901,0 27.50418,-5.58226 37.43863,-15.50944 9.92717,-9.92718 15.50216,-23.39214 15.50216,-37.43862 0,-14.03939 -5.57499,-27.50418 -15.50216,-37.43118 -9.93445,-9.93444 -23.39962,-15.50943 -37.43863,-15.50943 z m 0,70.59009 c -7.13967,0 -13.5736,-4.30132 -16.30278,-10.89529 -2.72917,-6.59395 -1.2227,-14.1849 3.821,-19.22794 5.05089,-5.0509 12.64202,-6.55745 19.23542,-3.82828 6.59394,2.72917 10.89527,9.17037 10.89527,16.30277 0,4.67974 -1.86317,9.17035 -5.16732,12.48178 -3.31142,3.31142 -7.80205,5.16732 -12.48177,5.16732 z m 352.94109,-70.59009 c -14.04666,0 -27.51162,5.57499 -37.43864,15.50943 -9.92717,9.92718 -15.50214,23.39217 -15.50214,37.43118 0,14.04665 5.57497,27.51164 15.50214,37.43862 9.9272,9.927 23.39217,15.50944 37.43864,15.50944 14.03939,0 27.50417,-5.58226 37.43116,-15.50944 9.93447,-9.92718 15.50944,-23.39214 15.50944,-37.43862 0,-14.03939 -5.57497,-27.50418 -15.50944,-37.43118 -9.92717,-9.93444 -23.39214,-15.50943 -37.43116,-15.50943 z m 0,70.59009 c -7.13968,0 -13.57361,-4.30132 -16.30277,-10.89529 -2.73663,-6.59395 -1.2227,-14.1849 3.82099,-19.22794 5.05088,-5.0509 12.642,-6.55745 19.23541,-3.82828 6.59396,2.72917 10.88803,9.17037 10.88803,16.30277 0,4.67974 -1.85589,9.17035 -5.16735,12.48178 -3.30415,3.31142 -7.79475,5.16732 -12.4745,5.16732 z M 461.44427,366.4928 c 0,4.67972 -1.85589,9.17035 -5.16733,12.4745 -3.3114,3.31143 -7.80203,5.1746 -12.48177,5.1746 h -141.1783 c -9.74534,0 -17.64202,-7.90395 -17.64202,-17.64929 0,-9.74534 7.89668,-17.6493 17.64202,-17.6493 h 141.1783 c 4.67974,0 9.17037,1.86319 12.48177,5.16734 3.31144,3.31142 5.16733,7.80204 5.16733,12.48177 z m 0,70.59008 c 0,4.67972 -1.85589,9.17036 -5.16733,12.47452 -3.3114,3.3114 -7.80203,5.17458 -12.48177,5.17458 h -141.1783 c -9.74534,0 -17.64202,-7.90396 -17.64202,-17.64929 0,-9.74534 7.89668,-17.6493 17.64202,-17.6493 h 141.1783 c 4.67974,0 9.17037,1.8559 12.48177,5.16733 3.31144,3.31142 5.16733,7.80204 5.16733,12.48177 z M 673.21265,260.61233 v -0.007 c 0,-14.03939 -5.58225,-27.50418 -15.50942,-37.43117 -9.92718,-9.92717 -23.39218,-15.50943 -37.43119,-15.50943 H 584.98166 L 567.3251,115.90312 c -1.69577,-8.35555 -9.12656,-14.29442 -17.64201,-14.11965 H 196.74198 c -8.52252,-0.17468 -15.94615,5.76429 -17.64927,14.11932 l -17.99864,91.76099 h -35.29038 c -16.14273,0.13828 -31.338599,7.62746 -41.280486,20.34959 -9.934451,12.72192 -13.522549,29.28722 -9.745336,44.97888 3.777215,15.69147 14.505185,28.80653 29.141912,35.61831 -18.391586,67.11152 -16.797645,138.13013 4.58508,204.35294 2.39455,7.64926 9.64341,12.72195 17.6493,12.3508 h 17.64928 v 17.64928 c 0,18.91495 10.0874,36.38968 26.47011,45.85086 16.3829,9.45412 36.55733,9.45412 52.94023,0 16.38289,-9.46139 26.47013,-26.93591 26.47013,-45.85086 V 525.3143 H 496.7408 v 17.64928 h 0.007 c 0,18.91495 10.08741,36.38968 26.47011,45.85086 16.37563,9.45412 36.55736,9.45412 52.94023,0 16.37562,-9.46139 26.47011,-26.93591 26.47011,-45.85086 V 525.3143 h 17.6493 c 7.74372,0.0509 14.61437,-4.9637 16.93588,-12.3508 21.61653,-66.15014 23.45737,-137.16874 5.2985,-204.35294 9.16307,-4.24301 16.92135,-11.01174 22.35808,-19.52048 5.44402,-8.50074 8.34068,-18.38432 8.34795,-28.48608 z M 211.20134,137.07457 H 535.20733 L 563.4456,278.25285 H 182.9668 Z m -102.70747,123.5303 c 0,-9.74531 7.90395,-17.64202 17.6493,-17.64202 h 27.88239 l -7.05975,35.29039 h -20.82284 c -9.74533,0 -17.64928,-7.8967 -17.64928,-17.64928 z m 105.88046,282.36405 h 0.007 c 0,9.74534 -7.90396,17.6493 -17.64929,17.6493 -9.74534,0 -17.6493,-7.90396 -17.6493,-17.6493 v -17.64927 h 35.29784 z m 352.9411,0 c 0,9.74534 -7.8967,17.6493 -17.64204,17.6493 -9.74533,0 -17.64928,-7.90396 -17.64928,-17.6493 v -17.64927 h 35.29037 z m 39.88309,-52.94023 H 139.18779 c -16.39742,-57.67827 -16.39742,-118.79225 0,-176.47054 h 468.01073 c 16.40469,57.67829 16.40469,118.79227 0,176.47054 z m 13.05676,-211.76838 h -20.82284 l -7.05976,-35.29037 h 27.88987 c 9.74532,0 17.64201,7.89669 17.64201,17.64201 0,9.75261 -7.89669,17.6493 -17.64201,17.6493 z"
     id="path164"
     style="stroke-width:1.86318" />
</svg>
