<?xml version="1.0" encoding="UTF-8" standalone="no"?>
<svg
   width="752pt"
   height="752pt"
   version="1.1"
	 fill="#ff0000"
   viewBox="0 0 752 752"
   id="svg20"
   sodipodi:docname="deparure.svg"
   inkscape:version="1.2 (dc2aedaf03, 2022-05-15)"
   xmlns:inkscape="http://www.inkscape.org/namespaces/inkscape"
   xmlns:sodipodi="http://sodipodi.sourceforge.net/DTD/sodipodi-0.dtd"
   xmlns="http://www.w3.org/2000/svg"
   xmlns:svg="http://www.w3.org/2000/svg">
  <defs
     id="defs24" />
  <sodipodi:namedview
     id="namedview22"
     pagecolor="#ffffff"
     bordercolor="#000000"
     borderopacity="0.25"
     inkscape:showpageshadow="2"
     inkscape:pageopacity="0.0"
     inkscape:pagecheckerboard="0"
     inkscape:deskcolor="#d1d1d1"
     inkscape:document-units="pt"
     showgrid="false"
     inkscape:zoom="0.65525266"
     inkscape:cx="339.56367"
     inkscape:cy="502.0964"
     inkscape:window-width="1600"
     inkscape:window-height="837"
     inkscape:window-x="-8"
     inkscape:window-y="174"
     inkscape:window-maximized="1"
     inkscape:current-layer="svg20" />
  <g
     id="g18"
     transform="matrix(2.3079598,0,0,2.254946,-490.64428,-562.92645)">
    <path
       d="m 319.64,310.46 89.98,76.34 63.695,-23.156 h 0.004 c 3.1562,-1.0586 6.4727,-1.5742 9.8008,-1.5156 8.3359,0 17.477,2.6992 19.699,8.8086 3.1719,8.7617 -9.1406,21.359 -17.902,24.531 l -63.504,23.16 c 0,0 -92.395,31.398 -112.14,35.043 l -30.023,3.125 c -3.125,-0.28516 -5.2109,-0.99609 -5.6836,-2.3672 -0.47266,-1.375 0.61719,-3.2188 2.8398,-5.4453 l -27.941,-37.887 18.094,-6.6758 34.855,27.75 c 13.645,-7.832 27.715,-14.898 42.148,-21.168 l 18.23,-6.582 -67.105,-84.867 24.957,-9.0938 m 0,-14.207 c -1.6133,0.0195 -3.2148,0.30859 -4.7344,0.85156 l -25.102,9.0938 c -4.2734,1.5625 -7.5391,5.0781 -8.7852,9.4531 -1.2461,4.375 -0.32031,9.0859 2.4883,12.664 l 54.602,69.426 c -5.3984,2.0352 -20.742,9.4727 -35.473,17.332 l -27.422,-21.832 h 0.004 c -2.4727,-1.9414 -5.5195,-3.0078 -8.6641,-3.0312 -1.6172,0.0195 -3.2188,0.30859 -4.7383,0.85547 l -18.043,6.582 c -4.2031,1.5234 -7.4414,4.9375 -8.7461,9.2109 -1.3047,4.2773 -0.51953,8.918 2.1172,12.527 l 22.637,30.781 c -0.73047,3.0508 -0.53125,6.25 0.56641,9.1875 1.7539,4.7344 6.25,10.656 17.855,11.648 h 2.6523 l 30.023,-3.125 h 1.0898 c 20.223,-3.6953 104.61,-32.25 114.18,-35.52 h 0.28516 l 63.695,-23.207 v 0.004 c 7.668,-3.0977 14.414,-8.1055 19.609,-14.539 7.5781,-9.4727 9.9922,-19.371 6.7734,-28.414 -4.0742,-11.176 -16.766,-18.137 -33.152,-18.137 v -0.004 c -4.9766,-0.0469 -9.9258,0.75391 -14.633,2.3711 l -55.977,20.363 -84.109,-71.18 c -2.5703,-2.1719 -5.8242,-3.3633 -9.1875,-3.3633 z"
       id="path14" />
    <path
       d="M 529.91,525.18 H 222.08 c -3.9219,0 -7.1016,-3.1797 -7.1016,-7.1055 0,-3.9219 3.1797,-7.1016 7.1016,-7.1016 h 307.83 c 3.9258,0 7.1055,3.1797 7.1055,7.1016 0,3.9258 -3.1797,7.1055 -7.1055,7.1055 z"
       id="path16" />
  </g>
</svg>
