<?xml version="1.0" encoding="UTF-8" standalone="no"?>
<svg
   width="752pt"
   height="752pt"
   version="1.1"
   fill="#ff0000"		 
   viewBox="0 0 752 752"
   id="svg400"
   sodipodi:docname="food.svg"
   inkscape:version="1.2 (dc2aedaf03, 2022-05-15)"
   xmlns:inkscape="http://www.inkscape.org/namespaces/inkscape"
   xmlns:sodipodi="http://sodipodi.sourceforge.net/DTD/sodipodi-0.dtd"
   xmlns="http://www.w3.org/2000/svg"
   xmlns:svg="http://www.w3.org/2000/svg">
  <defs
     id="defs404" />
  <sodipodi:namedview
     id="namedview402"
     pagecolor="#ffffff"
     bordercolor="#000000"
     borderopacity="0.25"
     inkscape:showpageshadow="2"
     inkscape:pageopacity="0.0"
     inkscape:pagecheckerboard="0"
     inkscape:deskcolor="#d1d1d1"
     inkscape:document-units="pt"
     showgrid="false"
     inkscape:zoom="0.65525266"
     inkscape:cx="501.33333"
     inkscape:cy="502.0964"
     inkscape:window-width="1600"
     inkscape:window-height="837"
     inkscape:window-x="-8"
     inkscape:window-y="174"
     inkscape:window-maximized="1"
     inkscape:current-layer="svg400" />
  <path
     d="M 253.43959,248.23846 V 115.90358 c 0,-4.87124 3.94918,-8.82042 8.82042,-8.82042 4.87588,0 8.82507,3.94918 8.82507,8.82042 v 132.33488 c 0,4.87123 -3.94919,8.82041 -8.82507,8.82041 -4.87124,0 -8.82042,-3.94918 -8.82042,-8.82041 z m 44.11163,8.82041 c 2.33779,0 4.5826,-0.92675 6.23583,-2.5847 1.65788,-1.65323 2.58471,-3.89792 2.58471,-6.23583 V 115.90346 c 0,-4.87124 -3.94919,-8.82042 -8.82042,-8.82042 -4.87124,0 -8.82507,3.94918 -8.82507,8.82042 v 132.33488 c 0,2.33779 0.93141,4.5826 2.5847,6.23583 1.65788,1.65788 3.89792,2.5847 6.24049,2.5847 z m 218.93673,334.87878 c 0.5309,11.60541 -3.7117,22.92255 -11.73584,31.32283 -8.02879,8.40136 -19.14087,13.15123 -30.76011,13.15123 -11.61924,0 -22.7306,-4.75023 -30.75534,-13.15123 -8.02879,-8.40135 -12.26661,-19.71789 -11.74049,-31.32283 l 6.79462,-149.60994 h -17.23095 c -7.01816,0 -13.74733,-2.78953 -18.71168,-7.75399 -4.96446,-4.95982 -7.75399,-11.69388 -7.75399,-18.71168 V 204.13816 c 0.0326,-25.72543 10.26418,-50.39456 28.45916,-68.58405 18.19068,-18.19068 42.85384,-28.42696 68.58404,-28.45438 4.68036,0 9.16508,1.85817 12.47643,5.16464 3.30647,3.31111 5.16929,7.79595 5.16929,12.47643 V 433.30759 Z M 421.0602,424.68305 h 70.57741 V 124.73592 c -21.0496,0.0233 -41.23365,8.3967 -56.11715,23.28021 -14.8835,14.88827 -23.25755,35.06755 -23.28021,56.11714 v 211.72388 c 0,2.3378 0.93142,4.5826 2.58471,6.23584 1.65323,1.65788 3.89792,2.5847 6.23583,2.5847 z M 332.84171,107.09127 c -4.87123,0 -8.82042,3.94918 -8.82042,8.82041 v 141.14529 c 0.014,9.10917 -2.80359,17.99992 -8.06134,25.43691 -5.26251,7.44199 -12.70414,13.05823 -21.30114,16.08047 -3.54407,1.22941 -5.92384,4.57319 -5.92849,8.32685 V 451.13429 H 271.08925 V 306.9012 c -0.005,-3.77226 -2.40301,-7.12534 -5.97498,-8.34545 -6.19387,-2.13297 -11.81023,-5.67692 -16.3976,-10.35729 -8.31755,-8.21966 -12.97478,-19.44726 -12.91398,-31.14161 V 115.91156 c 0,-4.87123 -3.95383,-8.82041 -8.82507,-8.82041 -4.87123,0 -8.82041,3.94918 -8.82041,8.82041 v 141.14529 c -0.0792,16.36541 6.4267,32.0775 18.05953,43.58944 4.97377,5.05292 10.80437,9.18368 17.22619,12.19269 v 138.29591 c -4.69431,-0.005 -8.57363,3.66508 -8.82042,8.35474 l -6.97166,132.38257 c -0.7917,11.70317 3.30181,23.21106 11.31201,31.77945 8.00542,8.56898 19.21001,13.43139 30.93655,13.43139 11.73107,0 22.9309,-4.86194 30.94133,-13.43139 8.00543,-8.56899 12.10328,-20.07676 11.30736,-31.77945 l -6.95295,-132.38257 c -0.24682,-4.68966 -4.1261,-8.35939 -8.82041,-8.35474 V 312.81514 c 10.56223,-4.99237 19.49018,-12.88656 25.73496,-22.75922 6.24978,-9.8729 9.56089,-21.32022 9.55159,-33.00503 V 115.9056 c 0,-2.33779 -0.92674,-4.5826 -2.58005,-6.24048 -1.65788,-1.65323 -3.90257,-2.58005 -6.24048,-2.58005 z"
     id="path398"
     style="stroke-width:1.19221" />
</svg>
