<?xml version="1.0" encoding="UTF-8" standalone="no"?>
<svg
   width="752pt"
   height="752pt"
   version="1.1"
   fill="#ff0000"		 
   viewBox="0 0 752 752"
   id="svg202"
   sodipodi:docname="hotels.svg"
   inkscape:version="1.2 (dc2aedaf03, 2022-05-15)"
   xmlns:inkscape="http://www.inkscape.org/namespaces/inkscape"
   xmlns:sodipodi="http://sodipodi.sourceforge.net/DTD/sodipodi-0.dtd"
   xmlns="http://www.w3.org/2000/svg"
   xmlns:svg="http://www.w3.org/2000/svg">
  <defs
     id="defs206" />
  <sodipodi:namedview
     id="namedview204"
     pagecolor="#ffffff"
     bordercolor="#000000"
     borderopacity="0.25"
     inkscape:showpageshadow="2"
     inkscape:pageopacity="0.0"
     inkscape:pagecheckerboard="0"
     inkscape:deskcolor="#d1d1d1"
     inkscape:document-units="pt"
     showgrid="false"
     inkscape:zoom="0.65525266"
     inkscape:cx="501.33333"
     inkscape:cy="502.0964"
     inkscape:window-width="1600"
     inkscape:window-height="837"
     inkscape:window-x="-8"
     inkscape:window-y="174"
     inkscape:window-maximized="1"
     inkscape:current-layer="svg202" />
  <g
     id="g200"
     transform="matrix(1.2943838,0,0,1.2943838,-104.96697,-132.43698)">
    <path
       d="m 516.6,324.2 c 48.965,0 88.797,-39.832 88.797,-88.797 -0.004,-48.965 -39.836,-88.797 -88.797,-88.797 -32.781,0 -61.395,17.898 -76.781,44.398 h -226.61 c -4.0859,0 -7.3984,3.3164 -7.3984,7.3984 v 29.598 c 0,4.0859 3.3164,7.3984 7.3984,7.3984 h 7.3984 v 14.801 h -7.3984 c -4.0859,0 -7.3984,3.3164 -7.3984,7.3984 v 230.71 c -4.6562,1.5078 -8.8359,4.3789 -12.305,8.2891 -3.1445,-1.375 -6.4609,-2.1992 -9.8945,-2.1992 -16.324,0 -29.598,16.598 -29.598,37 0,17.191 9.4727,31.547 22.199,35.68 v 23.516 l -29.602,0.008 v 14.801 l 414.38,-0.004 v -14.801 h -29.598 v -23.516 c 12.727,-4.1367 22.199,-18.5 22.199,-35.68 0,-20.402 -13.273,-37 -29.598,-37 -3.4258,0 -6.75,0.82031 -9.8945,2.1992 -3.4688,-3.9062 -7.6523,-6.7695 -12.305,-8.2891 v -165.45 c 4.8242,0.8125 9.7461,1.3398 14.801,1.3398 z m 0,-162.79 c 40.801,0 73.996,33.195 73.996,73.996 0,40.801 -33.195,73.996 -73.996,73.996 -40.801,0 -73.996,-33.195 -73.996,-73.996 0,-40.801 33.195,-73.996 73.996,-73.996 z M 464.803,524 c 0,17.191 9.4727,31.547 22.199,35.68 v 30.914 h -81.398 v -44.398 h 7.3984 c 4.0859,0 7.3984,-3.3086 7.3984,-7.3984 v -29.598 c 0,-4.0938 -3.3164,-7.3984 -7.3984,-7.3984 h -118.39 c -4.0859,0 -7.3984,3.3086 -7.3984,7.3984 v 29.598 c 0,4.0938 3.3164,7.3984 7.3984,7.3984 h 7.3984 v 44.398 l -81.395,0.004 v -30.914 c 12.727,-4.1367 22.199,-18.5 22.199,-35.68 0,-17.184 -9.4727,-31.547 -22.199,-35.68 v -16.117 l 266.39,-0.004 v 16.117 c -12.727,4.1367 -22.199,18.5 -22.199,35.68 z m -162.79,7.3984 v -14.801 h 103.6 v 14.801 z m 44.398,14.801 v 44.398 h -29.598 v -44.398 z m 14.801,0 h 29.598 v 44.398 h -29.598 z m 125.8,-88.797 h -266.39 v -14.801 h 266.39 z m -192.39,-29.598 h -29.598 v -29.598 h 29.598 z m 73.996,0 H 339.02 v -29.598 h 29.598 z m 73.996,0 h -29.598 v -29.598 h 29.598 z m 44.398,0 h -29.598 v -37 c 0,-4.0938 -3.3164,-7.3984 -7.3984,-7.3984 h -44.398 c -4.0859,0 -7.3984,3.3086 -7.3984,7.3984 v 37 h -14.801 v -37 c 0,-4.0938 -3.3164,-7.3984 -7.3984,-7.3984 h -44.398 c -4.0859,0 -7.3984,3.3086 -7.3984,7.3984 v 37 h -14.801 v -37 c 0,-4.0938 -3.3164,-7.3984 -7.3984,-7.3984 h -44.398 c -4.0859,0 -7.3984,3.3086 -7.3984,7.3984 v 37 h -29.598 v -59.199 h 266.38 v 59.199 z m 0,-73.996 -266.39,-0.004 v -14.801 l 266.39,0.004 z m -192.39,-29.598 h -29.598 v -29.598 h 29.598 z m 73.996,0 H 339.02 v -29.598 h 29.598 z m 44.398,0 v -29.598 h 29.598 v 29.598 z m -192.4,-118.4 h 212.37 c -1.6953,4.7656 -2.9805,9.6992 -3.8398,14.801 h -208.53 z m 14.801,29.598 h 192.39 c 0,5.0547 0.52344,9.9766 1.3398,14.801 h -193.73 v -14.801 z m 197.57,29.598 c 1.8359,5.1719 4.1133,10.117 6.8359,14.801 h -34.215 c -4.0859,0 -7.3984,3.3164 -7.3984,7.3984 v 37 h -14.801 v -37 c 0,-4.0859 -3.3164,-7.3984 -7.3984,-7.3984 h -44.398 c -4.0859,0 -7.3984,3.3164 -7.3984,7.3984 v 37 h -14.801 v -37 c 0,-4.0859 -3.3164,-7.3984 -7.3984,-7.3984 h -44.398 c -4.0859,0 -7.3984,3.3164 -7.3984,7.3984 v 37 h -29.598 v -59.199 h 212.37 z m -219.77,236.79 c 8.0195,0 14.801,10.168 14.801,22.199 0,12.031 -6.7773,22.199 -14.801,22.199 -8.0195,0 -14.801,-10.168 -14.801,-22.199 0,-12.031 6.7773,-22.199 14.801,-22.199 z m -44.398,29.598 c 0,-12.031 6.7773,-22.199 14.801,-22.199 0.83594,0 1.5977,0.17188 2.3516,0.36328 -1.5078,4.4414 -2.3516,9.3164 -2.3516,14.438 0,9.8945 3.168,18.848 8.2422,25.492 -2.4492,2.5391 -5.2891,4.1055 -8.2422,4.1055 -8.0195,0 -14.801,-10.168 -14.801,-22.199 z m 22.199,35.801 c 4.6758,-1.4961 8.9297,-4.4102 12.477,-8.4141 0.76172,0.33203 1.5312,0.64453 2.3242,0.90234 v 30.914 h -14.801 z m 310.79,23.398 v -30.914 c 0.79297,-0.25781 1.5625,-0.57031 2.3242,-0.90234 3.543,4.0117 7.8086,6.918 12.477,8.4141 v 23.398 h -14.801 z m 22.199,-81.398 c 8.0195,0 14.801,10.168 14.801,22.199 0,12.031 -6.7773,22.199 -14.801,22.199 -2.9531,0 -5.8008,-1.5742 -8.2422,-4.1055 5.0781,-6.6445 8.2422,-15.598 8.2422,-25.492 0,-5.1211 -0.84375,-9.9961 -2.3516,-14.438 0.74609,-0.19141 1.5156,-0.36328 2.3516,-0.36328 z m -14.801,14.801 c 0,12.031 -6.7773,22.199 -14.801,22.199 -8.0195,0 -14.801,-10.168 -14.801,-22.199 0,-12.031 6.7773,-22.199 14.801,-22.199 8.0195,0 14.801,10.168 14.801,22.199 z m -22.199,-199.79 h -29.598 v -22.797 c 8.5469,7.6719 18.566,13.695 29.598,17.617 z"
       id="path192" />
    <path
       d="m 487.68,276.71 44.398,-96.199 13.438,6.2031 -44.398,96.199 z"
       id="path194" />
    <path
       d="m 531.39,257.61 c 0,12.238 9.9609,22.199 22.199,22.199 12.2381,0 22.199,-9.9609 22.199,-22.199 0,-12.2381 -9.9609,-22.199 -22.199,-22.199 -12.2381,0 -22.199,9.9609 -22.199,22.199 z m 22.199,-7.3984 c 4.0781,0 7.3984,3.3242 7.3984,7.3984 0,4.0781 -3.3242,7.3984 -7.3984,7.3984 -4.0781,0 -7.3984,-3.3242 -7.3984,-7.3984 0,-4.0781 3.3242,-7.3984 7.3984,-7.3984 z"
       id="path196" />
    <path
       d="m 479.6,235.41 c 12.238,0 22.199,-9.9609 22.199,-22.199 0,-12.2381 -9.9609,-22.199 -22.199,-22.199 -12.238,0 -22.199,9.9609 -22.199,22.199 0,12.2381 9.9609,22.199 22.199,22.199 z m 0,-29.598 c 4.0781,0 7.3984,3.3242 7.3984,7.3984 0,4.0781 -3.3242,7.3984 -7.3984,7.3984 -4.0781,0 -7.3984,-3.3242 -7.3984,-7.3984 0,-4.0781 3.3242,-7.3984 7.3984,-7.3984 z"
       id="path198" />
  </g>
</svg>
