<?xml version="1.0" encoding="UTF-8" standalone="no"?>
<svg
   width="752pt"
   height="752pt"
   version="1.1"
   fill="#ff0000"		 
   viewBox="0 0 752 752"
   id="svg487"
   sodipodi:docname="louges.svg"
   inkscape:version="1.2 (dc2aedaf03, 2022-05-15)"
   xmlns:inkscape="http://www.inkscape.org/namespaces/inkscape"
   xmlns:sodipodi="http://sodipodi.sourceforge.net/DTD/sodipodi-0.dtd"
   xmlns="http://www.w3.org/2000/svg"
   xmlns:svg="http://www.w3.org/2000/svg">
  <defs
     id="defs491" />
  <sodipodi:namedview
     id="namedview489"
     pagecolor="#ffffff"
     bordercolor="#000000"
     borderopacity="0.25"
     inkscape:showpageshadow="2"
     inkscape:pageopacity="0.0"
     inkscape:pagecheckerboard="0"
     inkscape:deskcolor="#d1d1d1"
     inkscape:document-units="pt"
     showgrid="false"
     inkscape:zoom="0.65525266"
     inkscape:cx="501.33333"
     inkscape:cy="502.0964"
     inkscape:window-width="1600"
     inkscape:window-height="837"
     inkscape:window-x="-8"
     inkscape:window-y="174"
     inkscape:window-maximized="1"
     inkscape:current-layer="svg487" />
  <g
     id="g485"
     transform="matrix(1.3428657,0,0,1.3428657,-133.2117,-143.365)">
    <path
       d="m 272.29,213.23 c -7.8125,0.14844 -10.113,10.707 -3.0625,14.078 l 55.902,27.949 19.336,103.13 h 15.059 l -20.523,-109.46 c -0.42578,-2.2773 -1.8906,-4.2227 -3.9609,-5.2617 l -59.199,-29.598 c -1.0938,-0.57812 -2.3164,-0.88672 -3.5547,-0.875 z"
       fill-rule="evenodd"
       id="path479" />
    <path
       d="m 445.81,181.12 c -3.2422,0.14844 -6.0312,2.332 -6.8789,5.4609 l -6.2148,21.562 -66.945,22.66 57.176,15.32 -30.09,112.3 h 15.348 l 29.051,-108.45 57.176,15.289 -47.262,-53.793 5.9844,-20.781 c 1.4922,-4.8672 -2.2539,-9.75 -7.3438,-9.5664 z"
       fill-rule="evenodd"
       id="path481" />
    <path
       d="m 309.52,294.72 c -4.0859,0 -7.3984,3.3125 -7.3984,7.3984 v 103.48 c 0,46.457 35.895,84.641 81.398,88.422 v 66.973 h -36.887 c -1.9805,-0.0273 -3.8906,0.73828 -5.3008,2.1289 -1.4102,1.3906 -2.2031,3.2891 -2.2031,5.2695 0,1.9844 0.79297,3.8828 2.2031,5.2734 1.4102,1.3906 3.3203,2.1562 5.3008,2.1289 h 88.594 c 1.9805,0.0273 3.8906,-0.73828 5.3008,-2.1289 1.4102,-1.3906 2.207,-3.2891 2.207,-5.2734 0,-1.9805 -0.79688,-3.8789 -2.207,-5.2695 -1.41012,-1.3906 -3.3203,-2.1562 -5.3008,-2.1289 h -36.91 v -67.523 c 45.426,-3.832 81.398,-41.473 81.398,-87.871 v -103.48 h -0.004 c 0,-4.0859 -3.3125,-7.3984 -7.3984,-7.3984 h -33.617 l -3.9883,14.801 h 30.207 v 63.707 h -147.99 v -63.707 h 5.2031 l -2.7734,-14.801 z m 51.219,0 2.7734,14.801 h 29.02 l 3.9883,-14.801 z"
       id="path483" />
  </g>
</svg>
