<?xml version="1.0" encoding="UTF-8" standalone="no"?>
<svg
   width="752pt"
   height="752pt"
   version="1.1"
   fill="#ff0000"		 
   viewBox="0 0 752 752"
   id="svg376"
   sodipodi:docname="parking.svg"
   inkscape:version="1.2 (dc2aedaf03, 2022-05-15)"
   xmlns:inkscape="http://www.inkscape.org/namespaces/inkscape"
   xmlns:sodipodi="http://sodipodi.sourceforge.net/DTD/sodipodi-0.dtd"
   xmlns="http://www.w3.org/2000/svg"
   xmlns:svg="http://www.w3.org/2000/svg">
  <defs
     id="defs380" />
  <sodipodi:namedview
     id="namedview378"
     pagecolor="#ffffff"
     bordercolor="#000000"
     borderopacity="0.25"
     inkscape:showpageshadow="2"
     inkscape:pageopacity="0.0"
     inkscape:pagecheckerboard="0"
     inkscape:deskcolor="#d1d1d1"
     inkscape:document-units="pt"
     showgrid="false"
     inkscape:zoom="0.65525266"
     inkscape:cx="501.33333"
     inkscape:cy="502.0964"
     inkscape:window-width="1600"
     inkscape:window-height="837"
     inkscape:window-x="-8"
     inkscape:window-y="174"
     inkscape:window-maximized="1"
     inkscape:current-layer="svg376" />
  <g
     id="g374"
     transform="matrix(1.459846,0,0,1.459846,-167.58809,-190.14983)">
    <path
       d="m 350.8,333.32 h -38.141 c -7.9805,0 -12.371,4.3984 -12.371,12.383 v 122.51 c 0,7.7461 4.375,12.379 11.727,12.379 7.3359,0 11.734,-4.6367 11.734,-12.379 v -41.207 h 28.348 c 29.098,0 49.418,-19.156 49.418,-46.605 -0.004,-27.711 -20.859,-47.082 -50.715,-47.082 z m -0.65234,74.129 -26.402,-0.004 v -54.531 h 26.402 c 15.434,0 26.621,11.465 26.621,27.277 0,15.801 -11.188,27.258 -26.621,27.258 z"
       id="path366" />
    <path
       d="m 450.36,463.21 c -2.2266,-5.3008 -7.0312,-9.3594 -7.8359,-9.9883 0.57812,-0.0977 2.7695,-0.55859 3.6992,-1.8984 0.37109,-0.60156 0.45312,-1.2305 0.27344,-1.9688 -0.24609,-0.98438 -0.89844,-1.7227 -1.9141,-2.1641 -1.8281,-0.78125 -4.3203,-0.44922 -5.3281,0.11328 -1.4805,0.80078 -1.1211,3.4648 -1.0703,3.7695 -0.12891,0.17578 -0.25391,0.35547 -0.33594,0.39844 -1.293,-2.7852 -7.6289,-14.469 -9.6289,-16.875 -1.3672,-1.6523 -2.2148,-1.9609 -2.6719,-1.9375 -0.33594,0.004 -0.50391,0.16016 -0.54297,0.26562 -0.19922,0.28125 -0.35156,0.45312 -0.68359,0.33594 -2.4258,-0.69141 -11.418,-1.6992 -19.938,-1.6992 -8.5195,0 -17.531,1.0078 -19.938,1.6992 -0.33594,0.11328 -0.46875,-0.0625 -0.67187,-0.33594 -0.0625,-0.0977 -0.21484,-0.26172 -0.55078,-0.26562 -0.48828,-0.0234 -1.3242,0.28906 -2.668,1.9375 -2.0312,2.4102 -8.3398,14.094 -9.6406,16.875 -0.0742,-0.043 -0.21484,-0.20703 -0.33984,-0.39844 0.0508,-0.29688 0.42969,-2.9688 -1.0625,-3.7695 -0.99609,-0.5625 -3.4844,-0.89453 -5.3281,-0.11328 -1.0078,0.44141 -1.6523,1.1797 -1.918,2.1641 -0.20312,0.73828 -0.0859,1.3672 0.28906,1.9688 0.92187,1.3398 3.1172,1.8047 3.6953,1.8984 -0.79688,0.63281 -5.6445,4.6875 -7.8555,9.9883 -1.0664,2.5352 -2.1016,6.5586 -0.74219,15.078 -0.0156,0.32813 -0.71094,10.879 0.74219,16.539 0.46094,1.4453 1.4805,4.8828 4.1719,4.8828 h 6.3711 0.12891 c 0.3125,0 1.1367,-0.0508 1.7812,-0.66016 0.51562,-0.47656 0.80078,-1.1992 0.80078,-2.1445 0.9375,0.0977 7.8672,0.0977 8.7617,0.0586 1.1523,-0.082 1.3203,-0.13672 1.9141,-0.375 0.13672,-0.082 0.36328,-0.16016 0.60547,-0.24609 1.2305,-0.48438 2.0703,-0.63281 3.5703,-0.63281 h 35.797 c 1.4766,0 2.3203,0.15234 3.5664,0.63281 0.26172,0.0859 0.44531,0.16406 0.60938,0.24609 0.58594,0.23828 0.75,0.29297 1.9102,0.375 0.89844,0.043 7.8008,0.043 8.7422,-0.0586 0.0195,0.94531 0.28125,1.6719 0.82031,2.1445 0.64844,0.60547 1.4688,0.66016 1.7695,0.66016 h 0.0937 6.3945 c 2.6914,0 3.7266,-3.4414 4.1758,-4.9023 1.4531,-5.6406 0.77344,-16.191 0.75391,-16.52 0.67969,-4.4922 1.2461,-10.262 -0.77344,-15.078 z m -66.012,-25.629 c 0.66016,-0.21875 9.3125,-1.5352 19.832,-1.5352 10.504,0 19.426,1.5 20.055,1.7148 0.28906,0.42188 5.2148,8.0469 7.4414,13.047 -0.28516,-0.0391 -0.57812,-0.10938 -1.8438,-0.21484 -5.8398,-0.49609 -15.277,-1.6875 -25.453,-1.6875 -10.195,0 -20.16,1.1875 -25.988,1.6875 -1.2656,0.0977 -0.86719,0.17578 -1.1641,0.21484 2.2461,-5.0195 6.8789,-12.859 7.1211,-13.227 z m 30.43,17.602 c -0.53516,0.60547 -5.0117,0.57422 -10.398,0.57422 -5.375,0 -9.8555,0.0937 -10.398,-0.47266 -0.0391,-0.0586 0,-0.66797 0,-0.69922 0,-0.64844 4.6523,-1.1641 10.398,-1.1641 5.7539,0 10.398,0.51562 10.398,1.1641 0,0.0352 0.0391,0.55859 0,0.59766 z m -46.098,16.188 h -2.0898 c -2.5508,0 -4.6367,-2.0781 -4.6367,-4.6562 0,-2.5664 2.082,-4.6406 4.6367,-4.6406 h 2.0898 c 2.5703,0 4.6562,2.0742 4.6562,4.6406 0.004,2.5742 -2.0859,4.6562 -4.6562,4.6562 z m 60.078,8.6836 v 0.16016 c 0,0.44141 -0.10547,3.2422 -0.33203,4.1016 v -2.2383 c -0.35547,1.332 -0.69922,1.5781 -3.6797,2.6484 -3.0273,1.0938 -14.07,1.1641 -18.863,1.1641 h -0.91797 -1.1406 -0.95703 c -4.7695,0 -15.816,-0.0703 -18.836,-1.1641 -3.0117,-1.0703 -3.3398,-1.3125 -3.6953,-2.6484 v 2.2383 c -0.23828,-0.86328 -0.32031,-3.6602 -0.33203,-4.1016 0,-0.0469 0,-0.0977 -0.008,-0.16016 0,-0.24219 -0.0586,-0.55859 0.17969,-0.80859 0.20703,-0.21875 0.57812,-0.33594 1.1367,-0.33594 0.23047,0 22.793,-0.125 23.074,-0.125 0.28516,0 22.844,0.125 23.062,0.125 0.5625,0 0.92188,0.11719 1.1406,0.33594 0.22656,0.25 0.19531,0.57031 0.16797,0.80859 z m 2.5117,-8.6562 c -0.75,0.15625 -20.512,0.24609 -26.082,0.24609 h -0.22266 -0.23047 c -5.8008,0 -26.488,-0.0898 -27.23,-0.24609 -0.76562,-0.16016 -1.2188,-0.44141 -1.2188,-1.4102 0,-0.88281 1.1172,-2.9727 2.7812,-4.6133 1.668,-1.6719 3.7031,-1.9688 7.0547,-2.5117 3.543,-0.53906 15.188,-0.88672 18.25,-0.88672 3.0938,0 14.711,0.33984 18.242,0.88672 3.3633,0.53906 5.4141,0.84375 7.0664,2.5117 1.668,1.6367 2.7734,3.7305 2.7734,4.6133 0.008,0.97266 -0.42188,1.2461 -1.1836,1.4102 z m 10.891,-0.0273 h -2.082 c -2.582,0 -4.6523,-2.0781 -4.6523,-4.6562 0,-2.5664 2.0742,-4.6406 4.6523,-4.6406 h 2.082 c 2.5664,0 4.6406,2.0742 4.6406,4.6406 0,2.5742 -2.0742,4.6562 -4.6406,4.6562 z"
       id="path368" />
    <path
       d="M 496.86,557.52 H 255.14 c -17.957,0 -32.574,-14.621 -32.574,-32.578 v -254.04 c 0,-10.629 5.0312,-24.824 29.02,-32.051 l 124.41,-44.383 125,44.57 c 7.0938,2.5859 28.438,10.371 28.438,31.863 v 254.04 c 0,17.953 -14.617,32.57 -32.574,32.57 z M 376,220.62 259.28,262.241 c -12.086,3.6523 -12.086,7.1641 -12.086,8.6602 v 254.04 c 0,4.3867 3.5664,7.9531 7.9453,7.9531 h 241.73 c 4.3867,0 7.9453,-3.5664 7.9453,-7.9531 l 0.004,-254.04 c 0,-1.1641 0,-4.2539 -12.168,-8.6953 z"
       id="path370" />
    <path
       d="M 461.89,314.84 V 280.945 L 376.144,248.5 290.117,281.328 v 33.934 l 86.066,-32.84 z"
       id="path372" />
  </g>
</svg>
