<?xml version="1.0" encoding="UTF-8" standalone="no"?>
<svg
   width="752pt"
   height="752pt"
   version="1.1"
   fill="#ff0000"	
   viewBox="0 0 752 752"
   id="svg300"
   sodipodi:docname="terminals.svg"
   inkscape:version="1.2 (dc2aedaf03, 2022-05-15)"
   xmlns:inkscape="http://www.inkscape.org/namespaces/inkscape"
   xmlns:sodipodi="http://sodipodi.sourceforge.net/DTD/sodipodi-0.dtd"
   xmlns="http://www.w3.org/2000/svg"
   xmlns:svg="http://www.w3.org/2000/svg">
  <defs
     id="defs304" />
  <sodipodi:namedview
     id="namedview302"
     pagecolor="#ffffff"
     bordercolor="#000000"
     borderopacity="0.25"
     inkscape:showpageshadow="2"
     inkscape:pageopacity="0.0"
     inkscape:pagecheckerboard="0"
     inkscape:deskcolor="#d1d1d1"
     inkscape:document-units="pt"
     showgrid="false"
     inkscape:zoom="0.65525266"
     inkscape:cx="501.33333"
     inkscape:cy="502.0964"
     inkscape:window-width="1600"
     inkscape:window-height="837"
     inkscape:window-x="-8"
     inkscape:window-y="174"
     inkscape:window-maximized="1"
     inkscape:current-layer="svg300" />
  <path
     d="M 627.55466,100.72459 H 582.44177 V 81.391839 c 0,-7.09094 -5.79929,-12.890354 -12.89037,-12.890354 -7.09093,0 -12.89034,5.799278 -12.89034,12.890354 V 100.72459 H 195.77962 V 81.391839 c 0,-7.09094 -5.79927,-12.890354 -12.89035,-12.890354 -7.09092,0 -12.89035,5.799278 -12.89035,12.890354 v 19.332751 h -45.11289 c -14.1767,0 -25.774722,11.59854 -25.774722,25.77471 v 154.66735 c 0,14.17671 11.598562,25.77472 25.774722,25.77472 h 502.6621 c 14.1767,0 25.77472,-11.59855 25.77472,-25.77472 l 0.005,-154.66735 c 0,-14.17671 -11.59857,-25.77471 -25.77473,-25.77471 z m 0,180.44071 H 124.89256 V 126.49794 h 502.6621 z M 238.95395,208.34127 213.17923,234.116 c -2.57802,2.57801 -6.44253,2.57801 -9.02054,0 -2.57803,-2.57803 -2.57803,-6.44254 0,-9.02054 l 14.82037,-14.82037 h -36.09223 c -3.86438,0 -6.44252,-2.57802 -6.44252,-6.44251 0,-3.86452 2.57802,-6.44254 6.44252,-6.44254 h 36.08814 l -14.82035,-14.82035 c -2.57802,-2.57803 -2.57802,-6.44253 0,-9.02055 2.57801,-2.57801 6.44251,-2.57801 9.02053,0 l 25.77472,25.77472 c 0.64318,0.64319 1.28637,1.28636 1.28637,1.93491 0.64318,1.28636 0.64318,3.22126 0,5.15616 0.005,0.63788 -0.63788,1.28107 -1.28107,1.9243 z m 227.49682,-17.3977 h -161.1175 c -3.86439,0 -6.44253,-2.57801 -6.44253,-6.44252 0,-3.86437 2.57802,-6.44251 6.44253,-6.44251 h 161.10389 c 3.86438,0 6.44252,2.578 6.44252,6.44251 0.005,3.86437 -2.5727,6.44252 -6.4372,6.44252 z m 103.10705,38.66549 H 305.33327 c -3.86439,0 -6.44253,-2.57803 -6.44253,-6.44253 0,-3.86437 2.57802,-6.44251 6.44253,-6.44251 h 264.22455 c 3.86435,0 6.4425,2.578 6.4425,6.44251 0.005,3.86438 -2.57271,6.44253 -6.4425,6.44253 z M 227.99958,538.94377 h -103.1111 c -7.09095,0 -12.89036,-5.79928 -12.89036,-12.89036 v -90.22172 c 0,-28.35341 29.00115,-51.55623 64.44564,-51.55623 35.44449,0 64.44564,23.20282 64.44564,51.55623 v 90.22172 c 0,7.09094 -5.79929,12.89036 -12.89036,12.89036 z M 137.77787,513.1636 h 77.33097 v -77.33095 c 0,-14.17672 -18.0468,-25.77472 -38.66549,-25.77472 -20.62412,0 -38.66548,11.59856 -38.66548,25.77472 z m 115.99644,51.55625 c 0,-7.09094 -5.79928,-12.89037 -12.89035,-12.89037 h -128.8872 c -7.09093,0 -12.89035,5.79928 -12.89035,12.89037 0,7.09107 5.79928,12.89034 12.89035,12.89034 h 128.8872 c 7.09092,0 12.89035,-5.79927 12.89035,-12.89034 z m 174.00417,-25.77472 h -103.1111 c -7.09095,0 -12.89037,-5.79928 -12.89037,-12.89037 l 0.005,-90.22171 c 0,-28.35341 29.00116,-51.55623 64.44565,-51.55623 35.44448,0 64.44564,23.20282 64.44564,51.55623 v 90.22171 c -0.005,7.09095 -5.80459,12.89037 -12.89566,12.89037 z m -90.22171,-25.78017 h 77.33096 l 0.005,-77.33095 c 0,-14.17672 -18.04679,-25.77472 -38.66547,-25.77472 -20.62414,0 -38.6655,11.59856 -38.6655,25.77472 z m 116.00187,51.55624 c 0,-7.09093 -5.79927,-12.89035 -12.89034,-12.89035 H 311.78111 c -7.09094,0 -12.89037,5.79927 -12.89037,12.89035 0,7.09107 5.79929,12.89035 12.89037,12.89035 H 440.6683 c 7.09095,0 12.89034,-5.79928 12.89034,-12.89035 z M 627.56282,538.94649 H 524.45171 c -7.09095,0 -12.89036,-5.79929 -12.89036,-12.89037 v -90.2217 c 0,-28.35342 29.00115,-51.55624 64.44563,-51.55624 35.4445,0 64.44565,23.20282 64.44565,51.55624 v 90.2217 c -0.005,7.09095 -5.80459,12.89037 -12.89035,12.89037 z M 537.3411,513.16633 h 77.33096 v -77.33096 c 0,-14.17671 -18.04679,-25.77473 -38.66548,-25.77473 -20.62412,0 -38.66548,11.59857 -38.66548,25.77473 z m 115.99643,51.55624 c 0,-7.09095 -5.79927,-12.89035 -12.89034,-12.89035 H 511.56 c -7.09094,0 -12.89036,5.79926 -12.89036,12.89035 0,7.09107 5.79927,12.89034 12.89036,12.89034 h 128.88719 c 7.09093,0 12.89034,-5.79927 12.89034,-12.89034 z m -12.89034,57.99821 h -51.55625 v -19.33275 c 0,-7.09093 -5.79927,-12.89034 -12.89035,-12.89034 -7.09094,0 -12.89036,5.79928 -12.89036,12.89034 v 19.33275 H 389.11968 v -19.33275 c 0,-7.09093 -5.79928,-12.89034 -12.89036,-12.89034 -7.09107,0 -12.89036,5.79928 -12.89036,12.89034 v 19.33275 H 189.34841 v -19.33275 c 0,-7.09093 -5.79928,-12.89034 -12.89035,-12.89034 -7.09095,0 -12.89036,5.79928 -12.89036,12.89034 v 19.33275 h -51.55624 c -7.09094,0 -12.890357,5.79928 -12.890357,12.89036 0,7.09106 5.799287,12.89034 12.890357,12.89034 h 528.44905 c 7.09095,0 12.89037,-5.79928 12.89037,-12.89034 0,-7.08565 -5.79928,-12.89036 -12.89037,-12.89036 z"
     id="path298"
     style="stroke-width:1.36078" />
</svg>
