<?xml version="1.0" encoding="UTF-8" standalone="no"?>
<svg
   width="752pt"
   height="752pt"
   version="1.1"
   fill="#ff0000"		 
   viewBox="0 0 752 752"
   id="svg336"
   sodipodi:docname="transport.svg"
   inkscape:version="1.2 (dc2aedaf03, 2022-05-15)"
   xmlns:inkscape="http://www.inkscape.org/namespaces/inkscape"
   xmlns:sodipodi="http://sodipodi.sourceforge.net/DTD/sodipodi-0.dtd"
   xmlns="http://www.w3.org/2000/svg"
   xmlns:svg="http://www.w3.org/2000/svg">
  <defs
     id="defs340" />
  <sodipodi:namedview
     id="namedview338"
     pagecolor="#ffffff"
     bordercolor="#000000"
     borderopacity="0.25"
     inkscape:showpageshadow="2"
     inkscape:pageopacity="0.0"
     inkscape:pagecheckerboard="0"
     inkscape:deskcolor="#d1d1d1"
     inkscape:document-units="pt"
     showgrid="false"
     inkscape:zoom="0.65525266"
     inkscape:cx="504.38559"
     inkscape:cy="502.0964"
     inkscape:window-width="1600"
     inkscape:window-height="837"
     inkscape:window-x="-8"
     inkscape:window-y="174"
     inkscape:window-maximized="1"
     inkscape:current-layer="svg336" />
  <g
     id="g334"
     transform="matrix(1.236555,0,0,1.236555,-90.94744,-89.662802)">
    <path
       d="m 313.96,375.05 -0.94531,72.93 h 125.5 l -0.94531,-72.93 z m 105.14,18.941 v 8.0508 h -86.191 v -8.0508 z m -86.664,34.574 v -7.5781 h 87.137 v 8.0508 z"
       id="path326" />
    <path
       d="m 219.25,441.83 h 65.828 V 395.42 H 219.25 Z m 18.941,-27.469 h 27.941 v 8.5234 l -27.941,0.004 z"
       id="path328" />
    <path
       d="m 466.93,441.83 h 65.828 V 395.42 H 466.93 Z m 18.941,-27.469 h 27.941 v 8.5234 l -27.941,0.004 z"
       id="path330" />
    <path
       d="m 609.48,214.51 h -60.617 c -0.61328,-14.281 -6.7188,-27.773 -17.043,-37.66 -10.328,-9.8828 -24.074,-15.395 -38.367,-15.383 h -234.89 c -14.297,-0.0117 -28.043,5.5 -38.367,15.383 -10.324,9.8867 -16.434,23.379 -17.043,37.66 h -60.617 v 65.352 h 50.672 v -46.41 h 9.9453 v 125.03 c -8.707,7.8672 -13.695,19.043 -13.734,30.781 v 67.723 h -5.2109 v 64.406 h 22.73 l 0.004,50.672 c 0,4.8984 1.9453,9.5977 5.4102,13.062 3.4609,3.4609 8.1602,5.4102 13.059,5.4102 h 43.098 c 4.8984,0 9.5938,-1.9492 13.059,-5.4102 3.4648,-3.4648 5.4102,-8.1641 5.4102,-13.062 v -50.672 h 177.59 v 50.672 c 0,4.8984 1.9453,9.5977 5.4062,13.062 3.4648,3.4609 8.1641,5.4102 13.062,5.4102 h 43.098 -0.004 c 4.8984,0 9.5977,-1.9492 13.062,-5.4102 3.4609,-3.4648 5.4102,-8.1641 5.4102,-13.062 v -50.672 h 22.73 v -64.406 h -4.7344 v -67.723 c -0.0391,-11.738 -5.0273,-22.914 -13.734,-30.781 v -125.03 h 9.9453 v 46.41 h 50.672 z m -435.22,46.41 h -12.789 v -27.469 h 12.789 z m 84.297,-80.508 h 234.89 c 9.2734,-0.0195 18.207,3.4922 24.984,9.8281 6.7734,6.3359 10.879,15.012 11.48,24.27 h -307.83 c 0.60547,-9.2578 4.7109,-17.934 11.484,-24.27 6.7734,-6.3359 15.707,-9.8477 24.984,-9.8281 z m -36.469,53.039 h 144.45 v 114.13 h -135.45 l -8.9961,0.94531 z m 46.883,338.14 H 226.35 l 0.004,-50.199 h 42.621 z m 257.16,0 H 483.51 v -50.199 h 42.621 z m 22.73,-69.145 h -345.71 l 0.004,-26.52 h 345.71 z m -340.5,-45.461 v -67.723 c 0,-6.0273 2.3945,-11.812 6.6562,-16.074 4.2617,-4.262 10.047,-6.6562 16.074,-6.6562 h 289.83 c 6.0273,0 11.809,2.3945 16.074,6.6562 4.2617,4.2617 6.6562,10.047 6.6562,16.074 v 67.723 z m 312.56,-109.4 h -135.45 v -114.13 h 144.44 v 115.08 z m 69.617,-86.664 h -12.789 v -27.469 h 12.312 z"
       id="path332" />
  </g>
</svg>
