<?xml version="1.0" encoding="UTF-8" standalone="no"?>
<svg
   width="752pt"
   height="752pt"
   version="1.1"
   fill="#ff0000"			 
   viewBox="0 0 752 752"
   id="svg432"
   sodipodi:docname="webcam.svg"
   inkscape:version="1.2 (dc2aedaf03, 2022-05-15)"
   xmlns:inkscape="http://www.inkscape.org/namespaces/inkscape"
   xmlns:sodipodi="http://sodipodi.sourceforge.net/DTD/sodipodi-0.dtd"
   xmlns="http://www.w3.org/2000/svg"
   xmlns:svg="http://www.w3.org/2000/svg">
  <defs
     id="defs436" />
  <sodipodi:namedview
     id="namedview434"
     pagecolor="#ffffff"
     bordercolor="#000000"
     borderopacity="0.25"
     inkscape:showpageshadow="2"
     inkscape:pageopacity="0.0"
     inkscape:pagecheckerboard="0"
     inkscape:deskcolor="#d1d1d1"
     inkscape:document-units="pt"
     showgrid="false"
     inkscape:zoom="0.63231383"
     inkscape:cx="500.54259"
     inkscape:cy="501.33333"
     inkscape:window-width="1600"
     inkscape:window-height="837"
     inkscape:window-x="-8"
     inkscape:window-y="174"
     inkscape:window-maximized="1"
     inkscape:current-layer="svg432" />
  <g
     id="g430"
     transform="matrix(1.193691,0,0,1.193691,-78.28026,-82.018405)">
    <path
       d="m 373.23,203.85 c 0.98047,0.33984 1.9766,0.50391 2.9609,0.50391 3.7188,0 7.2109,-2.3281 8.5039,-6.0312 0.79688,-2.2695 0.65625,-4.7148 -0.38672,-6.8789 -1.043,-2.168 -2.8711,-3.7969 -5.1367,-4.5898 -4.6719,-1.6211 -9.8281,0.84375 -11.465,5.5273 -0.79688,2.2695 -0.65625,4.7148 0.38672,6.8789 1.043,2.1641 2.8711,3.7969 5.1367,4.5898 z"
       id="path424" />
    <path
       d="m 531.56,330.62 c 0,-67.629 -43.84,-127.36 -107.55,-147.98 v -4.3203 c 0,-13.41 -10.91,-24.316 -24.316,-24.316 h -47.945 c -13.406,0 -24.312,10.906 -24.312,24.316 v 4.5 c -63.383,20.797 -107,80.453 -107,147.81 0,69.984 46.461,129.3 110.16,148.79 v 49.105 H 305.57 c -19.68,0 -35.695,16.012 -35.695,35.695 v 23.426 c 0,5.7227 4.6367,10.359 10.359,10.359 h 191.94 c 5.7227,0 10.359,-4.6367 10.359,-10.359 v -23.426 c 0,-19.68 -16.012,-35.695 -35.695,-35.695 h -25.031 v -49.219 c 63.488,-19.602 109.76,-78.832 109.76,-148.68 z M 376,277.94 c 29.047,0 52.684,23.633 52.684,52.684 0,29.047 -23.633,52.68 -52.684,52.68 -29.047,0 -52.68,-23.633 -52.68,-52.684 0,-29.047 23.633,-52.68 52.68,-52.68 z M 351.754,174.72 h 47.945 c 1.9844,0 3.5977,1.6133 3.5977,3.5977 v 84.188 c -8.4453,-3.3945 -17.648,-5.2852 -27.297,-5.2852 -9.8516,0 -19.25,1.9648 -27.84,5.5 v -84.402 c 0,-1.9844 1.6133,-3.5977 3.5938,-3.5977 z m -110.6,155.9 c 0,-56.066 34.867,-105.97 86.281,-125.81 v 70.836 c -15.219,13.457 -24.844,33.109 -24.844,54.973 0,40.473 32.93,73.402 73.402,73.402 40.472,0 73.402,-32.93 73.402,-73.402 0,-22.125 -9.8516,-41.98 -25.387,-55.449 V 204.6 c 51.734,19.688 86.828,69.688 86.828,126.02 0,74.352 -60.492,134.84 -134.84,134.84 -74.352,-0.004 -134.84,-60.492 -134.84,-134.85 z m 220.65,233.59 v 13.066 H 290.584 V 564.21 c 0,-8.2578 6.7188,-14.977 14.977,-14.977 h 141.27 c 8.2617,0 14.977,6.7188 14.977,14.977 z m -60.727,-35.695 h -49.77 v -44.309 c 8.0469,1.2891 16.285,1.9805 24.688,1.9805 8.5391,0 16.914,-0.71875 25.082,-2.0508 z"
       id="path426" />
    <path
       d="m 376,359.59 c 15.973,0 28.965,-12.992 28.965,-28.965 0,-15.973 -12.992,-28.965 -28.965,-28.965 -15.973,0 -28.965,12.992 -28.965,28.965 0,15.969 12.996,28.965 28.965,28.965 z m 0,-43.133 c 7.8125,0 14.164,6.3555 14.164,14.164 0.004,7.8125 -6.3516,14.168 -14.164,14.168 -7.8124,0 -14.164,-6.3555 -14.164,-14.164 0,-7.8125 6.3555,-14.168 14.164,-14.168 z"
       id="path428" />
  </g>
</svg>
